<?xml version="1.0" encoding="UTF-8" standalone="no"?>
<!DOCTYPE svg PUBLIC "-//W3C//DTD SVG 1.1//EN" "http://www.w3.org/Graphics/SVG/1.1/DTD/svg11.dtd">
<svg width="100%" height="100%" viewBox="0 0 1024 1024" version="1.1" xmlns="http://www.w3.org/2000/svg" xmlns:xlink="http://www.w3.org/1999/xlink" xml:space="preserve" xmlns:serif="http://www.serif.com/" style="fill-rule:evenodd;clip-rule:evenodd;stroke-linejoin:round;stroke-miterlimit:2;">
    <g transform="matrix(1.16899e-16,1.9091,-1.51613,9.28362e-17,1024,-5.68434e-14)">
        <path d="M536.379,168.851C536.379,124.069 522.251,81.121 497.104,49.455C471.956,17.79 437.848,0 402.284,0L134.095,0C98.531,0 64.423,17.79 39.275,49.455C14.128,81.121 0,124.069 0,168.851L0,506.553C0,551.335 14.128,594.283 39.275,625.949C64.423,657.614 98.531,675.404 134.095,675.404L402.284,675.404C437.848,675.404 471.956,657.614 497.104,625.949C522.251,594.283 536.379,551.335 536.379,506.553L536.379,168.851Z" style="fill:url(#_Linear1);"/>
    </g>
    <g transform="matrix(1.27508,0,0,1.27508,197.585,197.586)">
        <path d="M87.935,0C63.423,0 30.912,66.013 30.912,116.405C30.912,149.619 42.036,169.65 58.654,178.094C72.056,184.914 79.91,199.268 78.449,214.231L54.545,456.359C53.629,465.783 56.729,475.156 63.084,482.157C69.44,489.172 78.463,493.168 87.936,493.168C97.409,493.168 106.43,489.171 112.787,482.157C119.143,475.156 122.241,465.782 121.326,456.359L97.422,214.231C95.96,199.268 103.827,184.915 117.216,178.094C133.834,169.649 144.958,149.619 144.958,116.405C144.958,66.013 113.752,0 87.935,0Z" style="fill:white;fill-rule:nonzero;"/>
    </g>
    <g transform="matrix(1.27508,0,0,1.27508,197.585,197.586)">
        <path d="M306.734,0C302.222,0 298.56,3.659 298.56,8.188L298.56,108.908C298.56,113.451 294.883,117.127 290.341,117.127C285.798,117.127 282.122,113.451 282.122,108.908L282.122,8.188C282.122,3.659 278.458,0 273.948,0L273.852,0C269.341,0 265.683,3.659 265.683,8.188L265.683,108.908C265.683,113.451 262.006,117.127 257.459,117.127C252.916,117.127 249.24,113.451 249.24,108.908L249.24,8.188C249.24,3.659 245.582,0 241.07,0L240.971,0C236.46,0 232.802,3.659 232.802,8.188L232.802,108.908C232.802,113.451 229.125,117.127 224.583,117.127C220.04,117.127 216.363,113.451 216.363,108.908L216.363,8.188C216.363,3.659 212.7,0 208.189,0C203.904,0 200.434,3.464 200.434,7.736L200.434,116.405C200.434,149.619 211.563,169.65 228.177,178.094C241.583,184.914 249.432,199.268 247.971,214.231L224.068,456.359C223.152,465.783 226.251,475.156 232.607,482.157C238.967,489.172 247.989,493.168 257.458,493.168C266.931,493.168 275.953,489.171 282.313,482.157C288.668,475.156 291.768,465.782 290.852,456.359L266.949,214.231C265.487,199.268 273.354,184.915 286.743,178.094C303.356,169.649 314.481,149.619 314.481,116.405L314.481,7.736C314.484,3.464 311.019,0 306.734,0Z" style="fill:white;fill-rule:nonzero;"/>
    </g>
    <g transform="matrix(1.27508,0,0,1.27508,197.585,197.586)">
        <path d="M440.218,232.891C443.316,232.891 445.82,230.388 445.82,227.288L445.82,9.825C445.82,4.398 441.423,0 435.983,0C431.278,0 427.136,3.113 425.838,7.642C425.838,7.642 394.688,89.602 391.784,126.375C389.075,160.686 387.932,198.505 408.417,228.281C410.41,231.173 413.698,232.891 417.199,232.891L395.316,456.359C394.4,465.783 397.5,475.156 403.86,482.157C410.215,489.172 419.238,493.168 428.712,493.168C438.18,493.168 447.201,489.171 453.562,482.157C459.918,475.156 463.017,465.782 462.1,456.359L440.218,232.891Z" style="fill:white;fill-rule:nonzero;"/>
    </g>
    <defs>
        <linearGradient id="_Linear1" x1="0" y1="0" x2="1" y2="0" gradientUnits="userSpaceOnUse" gradientTransform="matrix(536.379,0,0,675.404,0,337.702)"><stop offset="0" style="stop-color:rgb(0,147,255);stop-opacity:1"/><stop offset="1" style="stop-color:rgb(0,107,255);stop-opacity:1"/></linearGradient>
    </defs>
</svg>
