<?xml version="1.0" encoding="UTF-8" standalone="no"?>
<!DOCTYPE svg PUBLIC "-//W3C//DTD SVG 1.1//EN" "http://www.w3.org/Graphics/SVG/1.1/DTD/svg11.dtd">
<svg width="100%" height="100%" viewBox="0 0 1024 1024" version="1.1" xmlns="http://www.w3.org/2000/svg" xmlns:xlink="http://www.w3.org/1999/xlink" xml:space="preserve" xmlns:serif="http://www.serif.com/" style="fill-rule:evenodd;clip-rule:evenodd;stroke-linejoin:round;stroke-miterlimit:2;">
    <g id="cutlery" transform="matrix(1.39099,0,0,1.39099,169.002,169.003)">
        <g transform="matrix(1.49272,0,0,1.49272,-121.499,-121.498)">
            <path d="M87.935,0C63.423,0 30.912,66.013 30.912,116.405C30.912,149.619 41.317,167.65 57.935,176.094C71.337,182.914 79.191,197.268 77.73,212.231L54.545,456.359C53.629,465.783 56.729,475.156 63.084,482.157C69.44,489.172 78.463,493.168 87.936,493.168C97.409,493.168 106.43,489.171 112.787,482.157C119.143,475.156 122.241,465.782 121.326,456.359L98.141,212.231C96.679,197.268 104.546,182.915 117.935,176.094C134.553,167.649 144.958,149.619 144.958,116.405C144.958,66.013 113.752,0 87.935,0Z" style="fill:white;fill-rule:nonzero;"/>
        </g>
        <g transform="matrix(1.49272,0,0,1.49272,-121.499,-121.498)">
            <path d="M306.734,0C302.222,0 298.56,3.659 298.56,8.188L298.56,123.286C298.56,127.829 294.883,131.505 290.341,131.505C285.798,131.505 282.122,127.829 282.122,123.286L282.122,8.188C282.122,3.659 278.458,0 273.948,0L273.852,0C269.341,0 265.683,3.659 265.683,8.188L265.683,123.286C265.683,127.829 262.006,131.505 257.459,131.505C252.916,131.505 249.24,127.829 249.24,123.286L249.24,8.188C249.24,3.659 245.582,0 241.07,0L240.971,0C236.46,0 232.802,3.659 232.802,8.188L232.802,123.286C232.802,127.829 229.125,131.505 224.583,131.505C220.04,131.505 216.363,127.829 216.363,123.286L216.363,8.188C216.363,3.659 212.7,0 208.189,0C203.904,0 200.434,3.464 200.434,7.736L200.434,130.783C200.434,163.997 211.563,182.028 228.177,190.472C241.583,197.292 249.432,211.646 247.971,226.609L224.068,456.359C223.152,465.783 226.251,475.156 232.607,482.157C238.967,489.172 247.989,493.168 257.458,493.168C266.931,493.168 275.953,489.171 282.313,482.157C288.668,475.156 291.768,465.782 290.852,456.359L266.949,226.609C265.487,211.646 273.354,197.293 286.743,190.472C303.356,182.027 314.481,163.997 314.481,130.783L314.481,7.736C314.484,3.464 311.019,0 306.734,0Z" style="fill:white;fill-rule:nonzero;"/>
        </g>
        <g transform="matrix(1.49272,0,0,1.49272,-121.499,-121.498)">
            <path d="M440.218,232.891C443.316,232.891 445.82,230.388 445.82,227.288L445.82,9.825C445.82,4.398 441.423,0 435.983,0C431.278,0 427.136,3.113 425.838,7.642C425.838,7.642 408.561,56.792 401.812,88.38C394.106,124.454 387.932,198.505 408.417,228.281C410.41,231.173 413.698,232.891 417.199,232.891L395.316,456.359C394.4,465.783 397.5,475.156 403.86,482.157C410.215,489.172 419.238,493.168 428.712,493.168C438.18,493.168 447.201,489.171 453.562,482.157C459.918,475.156 463.017,465.782 462.1,456.359L440.218,232.891Z" style="fill:white;fill-rule:nonzero;"/>
        </g>
    </g>
</svg>
